<svg id="Layer_2" data-name="Layer 2" xmlns="http://www.w3.org/2000/svg" viewBox="0 0 318.68 377.64"><defs><style>.cls-1{fill:#f0e7e6;}.cls-2{fill:none;}.cls-3{fill:#010103;}</style></defs><title>lionvector</title><path class="cls-1" d="M177.6,205s-8.16,1.92-12,3.36c0,0-1-7.68,18.72-20.64,0,0,3.36-10.56-5.28-26.88,0,0,4.8-1,13.44,11.52l5.76-32.16,57.12-29.28s27-.48,26.72,8.16a42.54,42.54,0,0,0-19,7.68s47-14.88,67.68,1.44c0,0,30.72,13.92,58.08,19.68L395,158.4l29.76,57.84s4.32,11.28,1.44,21.12c0,0-22.8-31.68-23.28-32.64,0,0,37.68,84.24,37.68,89,0,0,12,52.32-47,95.52,0,0-62.88,37-70.08,63.84,0,0-12.48-33.36,1.2-45.24,0,0,2.34-5.22,20.7-18,0,0,34.38-25,37.26-29.88,0,0,19.08-18.18,18.72-32.58,0,0,.9-2.88.36-14,0,0-10.44,35.46-44.28,56.52,0,0-81.72,53.46-94,73.26,0,0-29.88,36-28.44,45.36,0,0-36-60.84-15.84-101.16,0,0,4-13.68,29.88-32.76s39.6-32.4,39.6-32.4-7.92,23.4-11.16,30.6c0,0,29.16-17.28,34.56-56.88s-10-72.72-30-89.64c0,0,27.88,78.84-6,78.48,0,0-7.2,5.76-29.88-15.12,0,0-19.08-14.4-23.4-14.76,0,0,35.28,40.68,23.4,70.92,0,0-3.6,15.84-9.36,16.2,0,0-49-16.2-69.84,35.64,0,0-17.64-7.2-23.76-40.32,0,0-2.52,18.72,0,22.32,0,0-39.6-23.72,8.64-60.28l1.26-1.82s22.5,18.72,43.92,26.1c0,0,4.5-7.92-9.9-15.3,0,0-29.52-8.82-39.06-32.22,0,0-5.58-15.12,20.7-19.08,0,0-3.78-6.66-5-6.66L182,246.06s4.68-5.76-16.92-6.3c0,0-15.84-.36-19.26,2.52L137,239l36.72-29.16S179.16,207.06,177.6,205Z" transform="translate(-122.96 -110.88)"/><path class="cls-1" d="M126,250.68h0s1.8,13.56,15.48,17c0,0-.72,15.12,6.36,21.12,0,0-4,7.68-9.48,9.24,0,0-11.4-14.16-13.92-24.48C124.44,273.6,120.24,256.44,126,250.68Z" transform="translate(-122.96 -110.88)"/><path class="cls-2" d="M209.52,211.68" transform="translate(-122.96 -110.88)"/><path class="cls-3" d="M209.52,211.68V200.4s41-5.76,44.64,17.52c0,0-58.32,7-62.16,11.52l13.44-11.52s-2.4-9.12-2.64-10.56C202.8,207.36,206.88,205.68,209.52,211.68Z" transform="translate(-122.96 -110.88)"/><polygon class="cls-3" points="105.76 60.97 110.2 56.52 133.12 53.77 161.85 42.73 140.08 60.97 105.76 60.97"/><polygon class="cls-3" points="80.8 65.05 92.8 65.05 117.52 32.41 80.8 65.05"/></svg>